# xmcd
#
# Track frame offsets:
# 150
# 13902
# 28161
# 47486
# 65437
# 81016
# 97287
# 108648
# 122982
# 139045
# 150708
# 166833
# 179983
# 190119
#
# Disc length: 2757 seconds
#
#
# Revision: 4
# Processed by: cddbd v1.5.1PL2 Copyright (c) Steve Scherf et al.
# Submitted via: FreeRIP 2.944 
#
DISCID=c70ac30e
DTITLE=Gino and Geno - Agora É Só Alegria
DYEAR=2003
DGENRE=Bailão
TTITLE0=O Que Eu Tô Fazendo Aqui
TTITLE1=Tchê, Tchê, Tchê, Tchá, Tchá, Tchá
TTITLE2=Apaixonado Por Você
TTITLE3=É Carro
TTITLE4=Agora É Só Alegria
TTITLE5=Pra Salvar Minha Vida
TTITLE6=Jeito Caipira
TTITLE7=Dor De Cabeça
TTITLE8=Mete O Dedo
TTITLE9=A Viola Chorou
TTITLE10=Ela Pensa Que Vai Esquecer
TTITLE11=O Bem Iintencionado
TTITLE12=Tô Nos Braços Da Guria
TTITLE13=O Que Tem A Baiana
EXTD=
EXTT0=
EXTT1=
EXTT2=
EXTT3=
EXTT4=
EXTT5=
EXTT6=
EXTT7=
EXTT8=
EXTT9=
EXTT10=
EXTT11=
EXTT12=
EXTT13=
PLAYORDER=
